<?xml version="1.0" encoding="UTF-8" standalone="no"?>
<!-- Created with Inkscape (http://www.inkscape.org/) -->

<svg
   width="15mm"
   height="15mm"
   viewBox="0 0 15 15"
   version="1.1"
   id="svg2011"
   sodipodi:docname="Home.svg"
   inkscape:version="1.1.1 (3bf5ae0d25, 2021-09-20)"
   xmlns:inkscape="http://www.inkscape.org/namespaces/inkscape"
   xmlns:sodipodi="http://sodipodi.sourceforge.net/DTD/sodipodi-0.dtd"
   xmlns="http://www.w3.org/2000/svg"
   xmlns:svg="http://www.w3.org/2000/svg">
  <sodipodi:namedview
     id="namedview2013"
     pagecolor="#ffffff"
     bordercolor="#666666"
     borderopacity="1.0"
     inkscape:pageshadow="2"
     inkscape:pageopacity="0.0"
     inkscape:pagecheckerboard="0"
     inkscape:document-units="mm"
     showgrid="false"
     fit-margin-top="0"
     fit-margin-left="0"
     fit-margin-right="0"
     fit-margin-bottom="0"
     inkscape:zoom="12.443434"
     inkscape:cx="4.3798198"
     inkscape:cy="29.131829"
     inkscape:window-width="3440"
     inkscape:window-height="1369"
     inkscape:window-x="-8"
     inkscape:window-y="-8"
     inkscape:window-maximized="1"
     inkscape:current-layer="layer1" />
  <defs
     id="defs2008" />
  <g
     inkscape:label="Ebene 1"
     inkscape:groupmode="layer"
     id="layer1"
     transform="translate(-118.73564,-119.51818)">
    <path
       class="cls-1"
       d="m 121.01725,129.00348 4.94262,-4.94507 c 0.26122,-0.26124 0.29419,-0.27222 0.56519,0 l 4.92927,4.94507 v 4.95978 h -3.66212 v -3.35084 a 0.41259602,0.41259602 0 0 0 -0.41138,-0.41138 h -2.28761 a 0.41259602,0.41259602 0 0 0 -0.41138,0.41138 v 3.35084 h -3.66212 v -4.95978 z m 5.06345,-8.84897 -7.34506,6.89702 1.81151,0.95093 5.18797,-5.23196 c 0.44433,-0.44678 0.44922,-0.45654 0.88989,-0.0195 l 5.29912,5.249 1.81151,-0.95093 -7.35597,-6.9056 c -0.13184,-0.12206 -0.15137,-0.13794 -0.29907,0.011 z"
       fill="#6a6a6a"
       fill-rule="evenodd"
       stroke-width="0.12207"
       id="path1148" />
  </g>
</svg>
