<?xml version="1.0" encoding="UTF-8" standalone="no"?>
<!-- Created with Inkscape (http://www.inkscape.org/) -->

<svg
   width="15mm"
   height="15mm"
   viewBox="0 0 15 15"
   version="1.1"
   id="svg2011"
   sodipodi:docname="PassFail.svg"
   inkscape:version="1.1.1 (3bf5ae0d25, 2021-09-20)"
   xmlns:inkscape="http://www.inkscape.org/namespaces/inkscape"
   xmlns:sodipodi="http://sodipodi.sourceforge.net/DTD/sodipodi-0.dtd"
   xmlns="http://www.w3.org/2000/svg"
   xmlns:svg="http://www.w3.org/2000/svg">
  <sodipodi:namedview
     id="namedview2013"
     pagecolor="#ffffff"
     bordercolor="#666666"
     borderopacity="1.0"
     inkscape:pageshadow="2"
     inkscape:pageopacity="0.0"
     inkscape:pagecheckerboard="0"
     inkscape:document-units="mm"
     showgrid="false"
     fit-margin-top="0"
     fit-margin-left="0"
     fit-margin-right="0"
     fit-margin-bottom="0"
     inkscape:zoom="12.443434"
     inkscape:cx="4.3798198"
     inkscape:cy="29.131829"
     inkscape:window-width="3440"
     inkscape:window-height="1369"
     inkscape:window-x="-8"
     inkscape:window-y="-8"
     inkscape:window-maximized="1"
     inkscape:current-layer="layer1" />
  <defs
     id="defs2008" />
  <g
     inkscape:label="Ebene 1"
     inkscape:groupmode="layer"
     id="layer1"
     transform="translate(-118.73564,-119.51818)">
    <path
       class="st0"
       d="m 131.46272,120.2182 c 1.25489,0 2.27292,1.01681 2.27292,2.2728 0,1.0937 -0.77267,2.00669 -1.80171,2.22286 0.002,0.0171 0.002,0.0341 0.002,0.0512 v 0.64694 l 0.88862,-0.11723 c 0.29906,-0.039 0.57372,0.17211 0.61278,0.47117 0.039,0.29906 -0.17211,0.57371 -0.47117,0.61277 l -6.23447,0.81906 1.38056,5.52594 h 0.76291 c 0.27465,0 0.49802,0.2246 0.49802,0.49803 0,0.27465 -0.22458,0.49803 -0.49802,0.49803 h -5.20728 c -0.27466,0 -0.49803,-0.22461 -0.49803,-0.49803 0,-0.27465 0.22459,-0.49803 0.49803,-0.49803 h 0.75924 l 1.14741,-5.37327 -5.78217,0.76047 c -0.29906,0.0391 -0.57372,-0.17211 -0.61277,-0.47117 -0.039,-0.29906 0.1721,-0.57371 0.47117,-0.61277 l 0.90084,-0.11843 v -0.70553 c 0,-0.0147 0.001,-0.0292 0.002,-0.0439 -1.03754,-0.21117 -1.81871,-1.1291 -1.81871,-2.22892 0,-1.25488 1.01681,-2.27161 2.27292,-2.27161 1.25488,0 2.27279,1.01681 2.27279,2.2728 0,1.10591 -0.79099,2.0275 -1.83702,2.23011 0.001,0.0136 0.002,0.0269 0.002,0.0403 v 0.58836 l 9.60044,-1.26095 v -0.76413 c 0,-0.0133 0.001,-0.0269 0.002,-0.0403 -1.05586,-0.19531 -1.85664,-1.12177 -1.85664,-2.2338 -0.002,-1.25607 1.01434,-2.27279 2.26923,-2.27279 z m -0.85079,1.25607 h 1.17671 c 0.1953,0 0.34668,0.0489 0.45164,0.14526 0.10499,0.0964 0.15748,0.21728 0.15748,0.3601 0,0.11962 -0.0378,0.22338 -0.11236,0.30882 -0.0501,0.0573 -0.1233,0.10249 -0.2185,0.13671 0.14641,0.0354 0.25389,0.0952 0.32227,0.18066 0.0685,0.0855 0.1038,0.19286 0.1038,0.32226 0,0.10499 -0.0246,0.20018 -0.0733,0.28441 -0.0489,0.0842 -0.11604,0.15136 -0.20141,0.20018 -0.0524,0.0306 -0.13315,0.0526 -0.23927,0.0659 -0.14161,0.0183 -0.23555,0.0281 -0.28195,0.0281 h -1.08394 v -2.03237 z m 0.63231,0.79831 h 0.27342 c 0.0977,0 0.16723,-0.0171 0.20508,-0.0501 0.0378,-0.0341 0.0573,-0.083 0.0573,-0.14648 0,-0.0586 -0.0195,-0.10499 -0.0573,-0.13916 -0.0378,-0.0329 -0.10618,-0.0501 -0.20019,-0.0501 h -0.27831 z m 0,0.79709 h 0.31981 c 0.10868,0 0.18433,-0.0195 0.22948,-0.0574 0.0439,-0.0378 0.0672,-0.0891 0.0672,-0.1538 0,-0.0598 -0.0221,-0.10868 -0.066,-0.14526 -0.0439,-0.0366 -0.12091,-0.0549 -0.23193,-0.0549 h -0.31857 z m -9.88735,1.4538 h -0.71164 l -0.10249,0.33446 h -0.64085 l 0.76535,-2.03238 h 0.68723 l 0.7617,2.03238 h -0.65795 z m -0.13302,-0.43943 -0.22215,-0.73117 -0.22337,0.73117 z"
       fill="#787878"
       stroke-width="0.122064"
       id="path1146" />
  </g>
</svg>
