<?xml version="1.0" encoding="UTF-8" standalone="no"?>
<!-- Created with Inkscape (http://www.inkscape.org/) -->

<svg
   width="15mm"
   height="15mm"
   viewBox="0 0 15 15"
   version="1.1"
   id="svg2011"
   sodipodi:docname="Settings.svg"
   inkscape:version="1.1.1 (3bf5ae0d25, 2021-09-20)"
   xmlns:inkscape="http://www.inkscape.org/namespaces/inkscape"
   xmlns:sodipodi="http://sodipodi.sourceforge.net/DTD/sodipodi-0.dtd"
   xmlns="http://www.w3.org/2000/svg"
   xmlns:svg="http://www.w3.org/2000/svg">
  <sodipodi:namedview
     id="namedview2013"
     pagecolor="#ffffff"
     bordercolor="#666666"
     borderopacity="1.0"
     inkscape:pageshadow="2"
     inkscape:pageopacity="0.0"
     inkscape:pagecheckerboard="0"
     inkscape:document-units="mm"
     showgrid="false"
     fit-margin-top="0"
     fit-margin-left="0"
     fit-margin-right="0"
     fit-margin-bottom="0"
     inkscape:zoom="12.443434"
     inkscape:cx="4.3798199"
     inkscape:cy="29.13183"
     inkscape:window-width="3440"
     inkscape:window-height="1369"
     inkscape:window-x="-8"
     inkscape:window-y="-8"
     inkscape:window-maximized="1"
     inkscape:current-layer="layer1" />
  <defs
     id="defs2008" />
  <g
     inkscape:label="Ebene 1"
     inkscape:groupmode="layer"
     id="layer1"
     transform="translate(-118.73564,-119.51818)">
    <g
       transform="matrix(0.12207014,0,0,0.12206558,118.73564,121.11818)"
       fill="#787878"
       id="g1144">
      <path
         d="m 112.13,54.992 c -0.495,-0.348 -1.023,-0.47 -1.595,-0.37 -0.572,0.1 -1.034,0.395 -1.375,0.889 l -1.869,2.649 c -0.675,-0.287 -1.377,-0.518 -2.102,-0.707 -0.725,-0.189 -1.456,-0.335 -2.188,-0.442 l -0.605,-3.469 c -0.102,-0.586 -0.388,-1.043 -0.865,-1.38 -0.478,-0.336 -1.006,-0.449 -1.591,-0.347 l -4.354,0.759 c -0.557,0.098 -1.007,0.382 -1.357,0.862 -0.342,0.479 -0.464,1.008 -0.361,1.593 l 0.554,3.177 c -0.698,0.298 -1.368,0.636 -1.999,1.019 -0.64,0.383 -1.237,0.796 -1.792,1.239 l -2.937,-2.033 c -0.465,-0.346 -0.98,-0.477 -1.559,-0.375 -0.571,0.099 -1.026,0.399 -1.375,0.887 l -2.516,3.587 c -0.348,0.495 -0.469,1.023 -0.369,1.594 0.1,0.572 0.395,1.035 0.888,1.376 l 2.65,1.869 c -0.287,0.675 -0.518,1.377 -0.708,2.102 -0.189,0.725 -0.334,1.456 -0.442,2.188 l -3.469,0.605 c -0.585,0.102 -1.043,0.387 -1.379,0.865 -0.336,0.478 -0.45,1.006 -0.348,1.591 l 0.76,4.354 c 0.097,0.557 0.381,1.007 0.861,1.357 0.479,0.342 1.008,0.464 1.594,0.361 l 3.176,-0.554 c 0.298,0.698 0.636,1.367 1.019,1.999 0.384,0.64 0.8,1.251 1.247,1.834 l -2.041,2.895 c -0.346,0.465 -0.476,0.98 -0.375,1.559 0.1,0.571 0.399,1.026 0.887,1.375 l 3.595,2.558 c 0.49,0.319 1.016,0.427 1.587,0.327 0.571,-0.1 1.037,-0.38 1.383,-0.845 l 1.862,-2.693 c 0.674,0.287 1.376,0.518 2.102,0.707 0.724,0.19 1.455,0.335 2.188,0.442 l 0.604,3.47 c 0.102,0.585 0.388,1.043 0.865,1.379 0.478,0.335 1.006,0.45 1.591,0.348 l 4.354,-0.76 c 0.557,-0.097 1.007,-0.382 1.357,-0.861 0.343,-0.479 0.464,-1.008 0.361,-1.594 l -0.554,-3.177 c 0.698,-0.298 1.368,-0.635 2,-1.018 0.639,-0.384 1.25,-0.8 1.834,-1.247 l 2.894,2.041 c 0.466,0.346 0.988,0.475 1.573,0.372 0.593,-0.104 1.04,-0.401 1.361,-0.885 l 2.558,-3.594 c 0.318,-0.49 0.426,-1.016 0.327,-1.587 -0.101,-0.571 -0.381,-1.037 -0.845,-1.383 l -2.693,-1.861 c 0.287,-0.676 0.518,-1.378 0.707,-2.103 0.189,-0.724 0.334,-1.456 0.442,-2.188 l 3.469,-0.604 c 0.585,-0.103 1.043,-0.388 1.379,-0.866 0.337,-0.478 0.45,-1.005 0.348,-1.591 l -0.759,-4.354 c -0.098,-0.557 -0.382,-1.008 -0.862,-1.357 -0.479,-0.344 -1.008,-0.464 -1.593,-0.362 l -3.177,0.554 c -0.293,-0.67 -0.63,-1.332 -1.015,-1.978 -0.387,-0.653 -0.801,-1.258 -1.243,-1.813 l 2.033,-2.936 c 0.346,-0.466 0.476,-0.981 0.375,-1.56 -0.1,-0.571 -0.399,-1.026 -0.887,-1.375 z M 99.48,65.248 c 1.16,-0.203 2.295,-0.176 3.412,0.082 1.11,0.266 2.115,0.71 3.011,1.334 0.891,0.632 1.649,1.427 2.275,2.382 0.62,0.964 1.03,2.022 1.232,3.183 0.203,1.161 0.175,2.296 -0.082,3.412 -0.266,1.111 -0.711,2.114 -1.336,3.011 -0.631,0.892 -1.425,1.649 -2.381,2.275 -0.963,0.62 -2.021,1.03 -3.182,1.233 -1.161,0.202 -2.296,0.175 -3.412,-0.083 -1.111,-0.266 -2.115,-0.71 -3.011,-1.335 -0.892,-0.632 -1.649,-1.426 -2.275,-2.381 -0.62,-0.964 -1.03,-2.022 -1.233,-3.183 -0.202,-1.161 -0.175,-2.296 0.083,-3.412 0.266,-1.111 0.71,-2.115 1.335,-3.012 0.631,-0.89 1.426,-1.648 2.381,-2.274 0.965,-0.62 2.022,-1.03 3.183,-1.232 z M 66.013,13.556 c -0.18,-0.181 -0.348,-0.303 -0.502,-0.368 -0.146,-0.062 -0.33,-0.092 -0.551,-0.092 -0.225,0 -0.412,0.032 -0.563,0.095 -0.16,0.067 -0.321,0.183 -0.481,0.347 l -0.019,0.018 -4.172,4.159 c -0.824,0.82 -2.099,0.91 -3.022,0.272 -0.469,-0.301 -0.972,-0.595 -1.504,-0.883 -0.58,-0.313 -1.137,-0.59 -1.675,-0.836 -0.567,-0.259 -1.149,-0.504 -1.743,-0.735 -0.519,-0.202 -1.119,-0.415 -1.792,-0.636 -1.001,-0.33 -1.637,-1.261 -1.636,-2.261 H 48.352 V 6.238 C 48.352,6.005 48.318,5.805 48.25,5.639 48.185,5.478 48.079,5.326 47.935,5.18 L 47.931,5.184 C 47.78,5.034 47.628,4.927 47.476,4.865 47.31,4.797 47.11,4.764 46.877,4.764 H 38.85 c -0.212,0 -0.392,0.03 -0.54,0.092 -0.166,0.068 -0.336,0.187 -0.511,0.356 -0.142,0.143 -0.246,0.291 -0.31,0.444 -0.067,0.16 -0.101,0.353 -0.101,0.58 v 5.856 c 0,1.172 -0.846,2.146 -1.961,2.345 -0.632,0.151 -1.206,0.304 -1.714,0.46 -0.575,0.176 -1.157,0.378 -1.746,0.607 -0.556,0.214 -1.125,0.456 -1.706,0.724 -0.583,0.27 -1.12,0.538 -1.607,0.804 -0.94,0.512 -2.075,0.323 -2.8,-0.392 l -10e-4,10e-4 -4.62,-4.553 c -0.019,-0.019 -0.037,-0.037 -0.055,-0.056 h -0.001 c -0.145,-0.153 -0.29,-0.263 -0.435,-0.326 -0.133,-0.058 -0.304,-0.088 -0.515,-0.088 -0.21,0 -0.39,0.033 -0.542,0.097 -0.177,0.075 -0.351,0.197 -0.521,0.363 l -5.61,5.623 -0.004,0.004 0.004,0.005 c -0.18,0.18 -0.302,0.347 -0.367,0.501 -0.062,0.146 -0.092,0.33 -0.092,0.551 0,0.224 0.031,0.412 0.095,0.563 0.068,0.16 0.183,0.321 0.347,0.481 l 0.018,0.019 4.159,4.172 c 0.82,0.825 0.91,2.099 0.272,3.023 -0.301,0.468 -0.595,0.971 -0.883,1.504 -0.313,0.579 -0.59,1.136 -0.836,1.674 -0.26,0.568 -0.505,1.15 -0.735,1.744 -0.202,0.52 -0.415,1.12 -0.637,1.792 -0.33,1.001 -1.261,1.637 -2.261,1.637 v 10e-4 H 6.239 c -0.234,0 -0.434,0.034 -0.599,0.101 -0.162,0.066 -0.313,0.169 -0.454,0.311 l -0.009,0.009 c -0.141,0.141 -0.245,0.292 -0.311,0.454 -0.067,0.166 -0.101,0.366 -0.101,0.599 v 8.028 c 0,0.211 0.031,0.391 0.092,0.54 0.068,0.165 0.187,0.335 0.357,0.511 l 0.002,0.002 c 0.143,0.141 0.291,0.244 0.442,0.307 0.16,0.066 0.353,0.1 0.581,0.1 h 5.855 c 1.172,0 2.146,0.847 2.345,1.962 0.15,0.629 0.302,1.199 0.458,1.706 l 0.002,-0.001 c 0.185,0.604 0.387,1.189 0.607,1.755 0.212,0.55 0.457,1.132 0.733,1.745 0.285,0.63 0.557,1.192 0.814,1.685 0.493,0.944 0.288,2.067 -0.43,2.781 l 0.002,0.001 -4.554,4.541 -0.038,0.037 h 0.001 c -0.153,0.146 -0.263,0.29 -0.326,0.436 -0.058,0.133 -0.088,0.304 -0.088,0.515 0,0.209 0.033,0.39 0.097,0.541 0.076,0.18 0.201,0.356 0.372,0.53 l 5.568,5.633 c 0.165,0.151 0.332,0.261 0.501,0.327 0.171,0.067 0.374,0.102 0.607,0.102 0.236,0 0.442,-0.034 0.618,-0.104 0.165,-0.065 0.323,-0.167 0.472,-0.307 l 4.125,-4.19 c 0.821,-0.835 2.108,-0.935 3.041,-0.291 0.468,0.3 0.972,0.595 1.505,0.883 0.58,0.313 1.137,0.59 1.674,0.836 0.568,0.26 1.15,0.505 1.744,0.735 0.519,0.202 1.12,0.415 1.792,0.636 1.001,0.33 1.637,1.262 1.637,2.262 h 0.001 v 6.396 c 0,0.232 0.034,0.433 0.102,0.599 0.066,0.162 0.169,0.313 0.31,0.454 l 0.004,0.005 0.005,-0.005 c 0.282,0.282 0.631,0.421 1.053,0.421 h 8.027 c 0.211,0 0.392,-0.03 0.54,-0.092 0.165,-0.068 0.335,-0.188 0.511,-0.357 0.142,-0.144 0.245,-0.292 0.309,-0.444 0.067,-0.16 0.101,-0.354 0.101,-0.58 v -5.856 c 0,-1.173 0.847,-2.147 1.961,-2.346 0.632,-0.15 1.206,-0.304 1.714,-0.46 0.575,-0.176 1.157,-0.378 1.746,-0.606 0.55,-0.212 1.132,-0.457 1.745,-0.733 0.63,-0.285 1.193,-0.557 1.685,-0.813 0.944,-0.493 2.067,-0.288 2.781,0.43 l 10e-4,-0.002 4.541,4.554 0.036,0.038 10e-4,-0.001 c 0.147,0.155 0.292,0.265 0.434,0.326 0.135,0.059 0.315,0.088 0.543,0.088 0.22,0 0.404,-0.033 0.554,-0.098 0.154,-0.066 0.299,-0.172 0.436,-0.316 0.03,-0.031 0.061,-0.062 0.092,-0.092 l 5.598,-5.532 c 0.15,-0.164 0.26,-0.331 0.326,-0.501 0.067,-0.171 0.102,-0.373 0.102,-0.606 0,-0.237 -0.035,-0.443 -0.104,-0.618 -0.065,-0.166 -0.167,-0.323 -0.306,-0.472 l -4.191,-4.126 c -0.835,-0.821 -0.935,-2.109 -0.291,-3.041 0.301,-0.469 0.595,-0.972 0.883,-1.504 0.313,-0.58 0.59,-1.137 0.836,-1.676 0.26,-0.567 0.505,-1.149 0.735,-1.743 0.202,-0.519 0.415,-1.12 0.637,-1.792 0.33,-1.002 1.262,-1.637 2.262,-1.637 v -10e-4 h 6.395 c 0.234,0 0.434,-0.033 0.6,-0.102 0.162,-0.065 0.313,-0.169 0.454,-0.31 l 0.005,-0.004 -0.005,-0.005 c 0.282,-0.282 0.421,-0.632 0.421,-1.053 V 38.85 c 0,-0.212 -0.031,-0.392 -0.092,-0.54 -0.068,-0.165 -0.188,-0.335 -0.357,-0.511 l -0.002,-0.003 c -0.143,-0.141 -0.29,-0.243 -0.442,-0.307 -0.159,-0.067 -0.353,-0.1 -0.581,-0.1 h -5.855 c -1.186,0 -2.169,-0.867 -2.352,-2.001 -0.133,-0.528 -0.283,-1.067 -0.453,-1.616 -0.171,-0.55 -0.375,-1.141 -0.617,-1.774 -0.015,-0.04 -0.029,-0.08 -0.042,-0.12 -0.221,-0.578 -0.445,-1.117 -0.673,-1.616 -0.253,-0.554 -0.521,-1.09 -0.804,-1.608 -0.512,-0.94 -0.322,-2.075 0.392,-2.8 h -10e-4 l 4.554,-4.62 c 0.019,-0.019 0.037,-0.037 0.057,-0.055 l -10e-4,-10e-4 c 0.153,-0.145 0.263,-0.29 0.326,-0.435 0.058,-0.133 0.088,-0.304 0.088,-0.515 0,-0.21 -0.033,-0.39 -0.098,-0.542 -0.075,-0.176 -0.196,-0.35 -0.363,-0.521 l -5.623,-5.609 -0.005,-0.005 z m 1.341,-4.743 c 0.756,0.32 1.432,0.777 2.028,1.373 l -0.005,0.005 5.628,5.615 0.019,0.019 c 0.592,0.602 1.047,1.269 1.358,2 0.323,0.76 0.488,1.56 0.488,2.403 0,0.855 -0.168,1.659 -0.498,2.414 -0.322,0.739 -0.789,1.393 -1.394,1.969 l -3.313,3.36 c 0.05,0.105 0.099,0.212 0.147,0.318 0.291,0.639 0.558,1.273 0.799,1.903 0.016,0.036 0.031,0.074 0.046,0.112 0.245,0.642 0.481,1.335 0.71,2.072 l 0.076,0.248 h 4.043 c 0.853,0 1.652,0.158 2.405,0.473 0.739,0.31 1.404,0.763 1.998,1.36 l 0.047,0.047 c 0.581,0.601 1.021,1.267 1.325,2 0.31,0.75 0.464,1.531 0.464,2.346 v 8.028 c 0,1.737 -0.599,3.203 -1.817,4.421 l -0.004,-0.005 c -0.608,0.607 -1.284,1.062 -2.032,1.366 -0.745,0.305 -1.539,0.455 -2.386,0.455 H 72.77 c -0.047,0.124 -0.096,0.25 -0.146,0.377 -0.259,0.667 -0.541,1.335 -0.847,2.005 -0.319,0.698 -0.642,1.353 -0.967,1.954 -0.038,0.071 -0.077,0.144 -0.118,0.216 l 2.869,2.823 c 0.032,0.03 0.063,0.062 0.095,0.094 0.576,0.608 1.01,1.285 1.302,2.026 0.293,0.743 0.438,1.528 0.438,2.35 0,0.818 -0.146,1.598 -0.437,2.337 -0.29,0.738 -0.718,1.41 -1.285,2.02 l -0.001,-10e-4 c -0.023,0.025 -0.048,0.051 -0.073,0.075 l -5.651,5.586 c -0.585,0.614 -1.247,1.085 -1.99,1.405 -0.751,0.323 -1.562,0.488 -2.434,0.488 -0.853,0 -1.659,-0.168 -2.422,-0.498 -0.756,-0.326 -1.421,-0.797 -1.998,-1.405 l -3.296,-3.306 c -0.119,0.056 -0.236,0.109 -0.351,0.161 -0.611,0.275 -1.273,0.552 -1.987,0.827 -0.661,0.257 -1.356,0.496 -2.081,0.718 -0.097,0.03 -0.193,0.06 -0.289,0.088 v 4.033 c 0,0.852 -0.158,1.652 -0.473,2.403 -0.31,0.74 -0.764,1.405 -1.361,1.999 l -0.047,0.047 c -0.601,0.58 -1.267,1.021 -1.999,1.324 -0.75,0.311 -1.53,0.465 -2.346,0.465 H 36.85 c -1.737,0 -3.204,-0.6 -4.422,-1.816 l 0.004,-0.005 C 31.825,81.297 31.37,80.621 31.066,79.873 30.762,79.128 30.611,78.334 30.611,77.488 V 72.77 C 30.487,72.723 30.362,72.674 30.234,72.625 29.568,72.365 28.9,72.083 28.231,71.777 27.532,71.458 26.878,71.135 26.276,70.81 26.204,70.771 26.132,70.732 26.061,70.692 l -2.824,2.868 c -0.03,0.033 -0.062,0.064 -0.094,0.096 -0.608,0.576 -1.286,1.01 -2.026,1.302 -0.743,0.293 -1.528,0.438 -2.349,0.438 -0.82,0 -1.599,-0.145 -2.338,-0.436 -0.738,-0.29 -1.41,-0.719 -2.019,-1.286 l 0.001,-0.001 C 14.386,73.65 14.361,73.625 14.336,73.6 L 8.703,67.903 C 8.111,67.299 7.657,66.633 7.345,65.902 7.021,65.143 6.857,64.342 6.857,63.5 6.857,62.645 7.025,61.841 7.355,61.087 7.68,60.343 8.15,59.686 8.76,59.107 L 12.066,55.81 C 12.01,55.692 11.957,55.575 11.905,55.459 11.629,54.848 11.353,54.186 11.078,53.473 10.811,52.788 10.573,52.097 10.359,51.401 L 10.361,51.4 10.359,51.392 10.272,51.103 H 6.239 c -0.852,0 -1.652,-0.157 -2.404,-0.472 -0.74,-0.31 -1.405,-0.764 -1.999,-1.36 L 1.789,49.223 C 1.208,48.622 0.768,47.956 0.465,47.224 0.154,46.473 0,45.691 0,44.877 v -8.028 c 0,-0.846 0.151,-1.64 0.455,-2.385 0.304,-0.745 0.756,-1.419 1.36,-2.025 l 0.006,-0.006 0.004,-0.005 c 0.606,-0.604 1.281,-1.058 2.027,-1.362 0.746,-0.304 1.54,-0.455 2.386,-0.455 h 4.718 c 0.047,-0.124 0.096,-0.249 0.146,-0.377 0.259,-0.666 0.541,-1.334 0.847,-2.004 0.319,-0.698 0.641,-1.352 0.966,-1.954 0.042,-0.077 0.084,-0.155 0.126,-0.232 L 10.188,23.183 C 9.587,22.588 9.129,21.915 8.814,21.172 8.489,20.404 8.328,19.601 8.328,18.767 c 0,-0.831 0.161,-1.628 0.483,-2.393 0.319,-0.756 0.776,-1.432 1.373,-2.028 l 0.004,0.004 5.615,-5.628 0.019,-0.019 c 0.602,-0.592 1.268,-1.047 2,-1.359 0.76,-0.323 1.56,-0.488 2.403,-0.488 0.855,0 1.658,0.168 2.413,0.498 0.739,0.323 1.393,0.789 1.969,1.394 l 3.355,3.308 c 0.102,-0.049 0.203,-0.096 0.304,-0.143 0.617,-0.285 1.278,-0.563 1.985,-0.835 0.661,-0.257 1.356,-0.497 2.081,-0.719 0.097,-0.029 0.193,-0.059 0.289,-0.087 V 6.238 c 0,-0.852 0.158,-1.652 0.472,-2.404 0.31,-0.739 0.764,-1.405 1.36,-1.999 l 0.048,-0.047 c 0.601,-0.581 1.267,-1.021 2,-1.324 C 37.254,0.154 38.035,0 38.85,0 h 8.028 c 0.845,0 1.64,0.151 2.385,0.455 0.759,0.31 1.438,0.763 2.036,1.361 l -0.004,0.005 0.004,0.004 c 0.604,0.603 1.057,1.278 1.362,2.027 0.304,0.745 0.455,1.54 0.455,2.385 v 4.719 c 0.124,0.047 0.25,0.096 0.377,0.145 0.666,0.259 1.334,0.541 2.004,0.847 0.699,0.32 1.353,0.642 1.954,0.967 l 0.232,0.126 2.861,-2.853 c 0.596,-0.602 1.268,-1.059 2.011,-1.374 0.769,-0.325 1.571,-0.485 2.405,-0.485 0.831,0.002 1.629,0.162 2.394,0.484 z M 41.863,23.754 c 1.234,0 2.438,0.118 3.616,0.353 1.152,0.23 2.298,0.586 3.438,1.067 l 0.016,0.007 0.003,-0.007 c 1.077,0.464 2.103,1.023 3.077,1.675 0.964,0.645 1.855,1.373 2.672,2.183 l 0.01,0.01 c 0.811,0.818 1.539,1.71 2.184,2.674 0.652,0.974 1.21,2 1.675,3.076 0.028,0.066 0.054,0.133 0.076,0.2 0.443,1.081 0.773,2.166 0.991,3.256 0.235,1.177 0.353,2.382 0.353,3.616 0,1.234 -0.118,2.439 -0.353,3.615 -0.23,1.152 -0.586,2.298 -1.067,3.439 l -0.007,0.016 0.007,0.002 c -0.464,1.076 -1.023,2.102 -1.675,3.076 -0.645,0.964 -1.373,1.855 -2.184,2.673 l -0.01,0.01 c -0.817,0.81 -1.708,1.538 -2.673,2.184 -0.974,0.651 -1.999,1.21 -3.076,1.675 -0.066,0.028 -0.132,0.054 -0.2,0.075 -1.081,0.443 -2.166,0.773 -3.257,0.991 -1.177,0.235 -2.382,0.353 -3.616,0.353 -1.234,0 -2.438,-0.117 -3.615,-0.353 -1.152,-0.229 -2.298,-0.585 -3.438,-1.066 l -0.016,-0.007 -0.003,0.007 C 33.715,58.089 32.689,57.531 31.715,56.879 30.751,56.233 29.86,55.505 29.043,54.695 l -0.009,-0.01 C 28.223,53.868 27.495,52.976 26.85,52.012 26.198,51.038 25.64,50.013 25.176,48.936 25.147,48.871 25.122,48.803 25.1,48.737 24.657,47.656 24.327,46.57 24.108,45.479 c -0.235,-1.176 -0.353,-2.381 -0.353,-3.615 0,-1.234 0.118,-2.438 0.353,-3.616 0.23,-1.152 0.586,-2.298 1.067,-3.438 l 0.006,-0.016 -0.006,-0.002 c 0.464,-1.077 1.022,-2.102 1.674,-3.076 0.646,-0.964 1.373,-1.855 2.184,-2.674 l 0.009,-0.009 c 0.817,-0.81 1.708,-1.538 2.672,-2.183 0.975,-0.652 2,-1.211 3.077,-1.675 0.067,-0.029 0.134,-0.054 0.202,-0.076 1.08,-0.442 2.165,-0.773 3.255,-0.991 1.176,-0.236 2.381,-0.354 3.615,-0.354 z m 2.685,5.024 c -0.866,-0.172 -1.761,-0.259 -2.685,-0.259 -0.924,0 -1.819,0.087 -2.685,0.259 -0.833,0.166 -1.623,0.401 -2.37,0.705 -0.045,0.022 -0.091,0.044 -0.138,0.064 -0.845,0.365 -1.617,0.781 -2.314,1.248 -0.705,0.472 -1.358,1.006 -1.961,1.603 -0.595,0.601 -1.129,1.255 -1.601,1.96 -0.466,0.697 -0.882,1.469 -1.247,2.313 L 29.54,36.668 c -0.332,0.79 -0.586,1.626 -0.762,2.511 -0.173,0.866 -0.26,1.761 -0.26,2.685 0,0.924 0.086,1.819 0.26,2.685 0.166,0.832 0.401,1.622 0.704,2.369 0.023,0.045 0.044,0.091 0.065,0.139 0.364,0.845 0.78,1.615 1.247,2.313 0.472,0.705 1.006,1.358 1.603,1.961 0.602,0.596 1.255,1.13 1.96,1.602 0.697,0.467 1.469,0.883 2.313,1.247 l -0.003,0.007 c 0.789,0.331 1.625,0.586 2.51,0.763 0.866,0.172 1.76,0.259 2.685,0.259 0.924,0 1.819,-0.087 2.685,-0.259 0.833,-0.166 1.622,-0.401 2.369,-0.704 0.046,-0.023 0.092,-0.045 0.139,-0.065 0.845,-0.364 1.616,-0.78 2.313,-1.246 0.705,-0.473 1.359,-1.007 1.961,-1.603 0.596,-0.602 1.13,-1.256 1.603,-1.962 0.466,-0.696 0.882,-1.468 1.246,-2.312 l 0.007,0.002 c 0.332,-0.789 0.586,-1.625 0.763,-2.51 0.173,-0.866 0.26,-1.761 0.26,-2.685 0,-0.924 -0.087,-1.819 -0.26,-2.685 C 54.782,38.347 54.547,37.558 54.244,36.811 54.221,36.766 54.199,36.72 54.179,36.672 53.815,35.828 53.399,35.056 52.932,34.359 52.46,33.653 51.926,33 51.331,32.399 50.729,31.802 50.075,31.268 49.37,30.796 48.672,30.329 47.901,29.913 47.056,29.548 l 0.003,-0.007 C 46.27,29.209 45.434,28.955 44.548,28.778 Z"
         fill="#787878"
         id="path1142" />
    </g>
  </g>
</svg>
