<?xml version="1.0" encoding="UTF-8" standalone="no"?>
<!-- Created with Inkscape (http://www.inkscape.org/) -->

<svg
   width="15mm"
   height="15mm"
   viewBox="0 0 15 15"
   version="1.1"
   id="svg2011"
   sodipodi:docname="TimeTrace.svg"
   inkscape:version="1.1.1 (3bf5ae0d25, 2021-09-20)"
   xmlns:inkscape="http://www.inkscape.org/namespaces/inkscape"
   xmlns:sodipodi="http://sodipodi.sourceforge.net/DTD/sodipodi-0.dtd"
   xmlns="http://www.w3.org/2000/svg"
   xmlns:svg="http://www.w3.org/2000/svg">
  <sodipodi:namedview
     id="namedview2013"
     pagecolor="#ffffff"
     bordercolor="#666666"
     borderopacity="1.0"
     inkscape:pageshadow="2"
     inkscape:pageopacity="0.0"
     inkscape:pagecheckerboard="0"
     inkscape:document-units="mm"
     showgrid="false"
     fit-margin-top="0"
     fit-margin-left="0"
     fit-margin-right="0"
     fit-margin-bottom="0"
     inkscape:zoom="12.443434"
     inkscape:cx="4.3798198"
     inkscape:cy="29.131829"
     inkscape:window-width="3440"
     inkscape:window-height="1369"
     inkscape:window-x="-8"
     inkscape:window-y="-8"
     inkscape:window-maximized="1"
     inkscape:current-layer="layer1" />
  <defs
     id="defs2008" />
  <g
     inkscape:label="Ebene 1"
     inkscape:groupmode="layer"
     id="layer1"
     transform="translate(-118.73564,-119.51818)">
    <path
       d="m 120.99393,125.99555 h 1.00309 l 0.83225,-1.68648 1.51687,2.18554 1.54976,-3.02026 1.61819,3.17283 0.55403,-0.50764 0.36609,-0.144 h 1.33259 v 0.0647 a 4.3698976,4.3698976 0 0 1 -0.12205,1.01896 h -1.00188 l -1.44608,1.32771 -1.30571,-2.56268 -1.40578,2.74444 -1.4985,-2.15754 -0.31851,0.65287 h -1.55715 a 4.4358141,4.4358141 0 0 1 -0.12206,-1.01896 v -0.0647 z m 4.38575,-6.47737 a 6.5444769,6.5444769 0 0 1 5.47674,10.12853 l 2.83229,3.08618 -1.95253,1.78529 -2.73229,-3.0093 a 6.5432881,6.5432881 0 1 1 -3.62434,-11.9907 z m 3.61206,2.92872 a 5.1021108,5.1021108 0 1 0 1.4985,3.61206 5.0972232,5.0972232 0 0 0 -1.4985,-3.61206 z"
       fill="#787878"
       stroke-width="0.122031"
       id="path1150" />
  </g>
</svg>
