	<svg
			width="80mm"
			height="80mm"
			viewBox="0 0 80 80"
			version="1.1"
			id="svg8"
			xmlns="http://www.w3.org/2000/svg"
		>
			<defs id="defs2" />
			
			<metadata id="metadata5">
			
			</metadata>
			<g
			
				
				id="layer1"
				transform="translate(0,-217)"
			>
				<g
					transform="matrix(0.03612299,0,0,0.03394158,12.527206,230.32934)"
					id="g4590"
				>
					<g
						transform="translate(-1276.8829,1235.5152)"
						id="g4155"
						
					>
						<g
							
							id="g3564"
							transform="matrix(1.25,0,0,-1.25,1034.9747,316.95912)"
						>
							<path
								d="m 0,0 c 0,-6.23 1.326,-11.343 3.981,-15.336 2.653,-3.994 6.206,-7.231 10.661,-9.705 4.452,-2.479 9.61,-4.516 15.462,-6.11 5.858,-1.599 11.912,-3.036 18.162,-4.316 8.587,-1.918 16.712,-4.033 24.363,-6.35 7.654,-2.317 14.721,-5.793 21.206,-10.424 6.484,-4.636 11.716,-10.904 15.697,-18.814 3.985,-7.905 5.978,-18.175 5.978,-30.792 0,-11.506 -2.241,-21.689 -6.713,-30.556 -4.475,-8.867 -10.78,-16.297 -18.932,-22.286 -8.147,-5.991 -17.893,-10.545 -29.234,-13.661 -11.345,-3.114 -23.81,-4.672 -37.383,-4.672 -8.311,0 -15.861,0.44 -22.65,1.318 -6.79,0.88 -12.784,2 -17.972,3.354 -5.192,1.356 -9.629,2.757 -13.302,4.194 -3.677,1.435 -6.711,2.794 -9.106,4.072 v 31.156 c 9.41,-3.834 18.744,-6.872 27.996,-9.105 9.259,-2.242 19.454,-3.358 30.589,-3.358 8.785,0 16.705,0.799 23.763,2.398 7.058,1.595 13.137,3.954 18.235,7.069 5.102,3.117 9.02,7.028 11.765,11.743 2.745,4.71 4.122,10.186 4.122,16.417 0,6.385 -1.256,11.66 -3.764,15.816 -2.507,4.153 -5.884,7.587 -10.119,10.303 -4.233,2.717 -9.138,4.953 -14.704,6.712 -5.568,1.756 -11.409,3.356 -17.525,4.792 -7.998,1.755 -16.115,3.835 -24.35,6.229 -8.233,2.4 -15.723,5.754 -22.468,10.068 -6.741,4.314 -12.19,10.184 -16.345,17.611 -4.159,7.433 -6.235,16.976 -6.235,28.638 0,11.984 2.153,22.366 6.466,31.155 4.316,8.785 10.146,16.056 17.498,21.807 7.348,5.752 15.895,10.066 25.64,12.941 9.743,2.877 20.048,4.314 30.916,4.314 12.621,0 24.323,-1.199 35.107,-3.597 10.785,-2.394 20.567,-5.429 29.357,-9.103 V 22.286 c -9.351,3.675 -18.825,6.671 -28.412,8.988 -9.586,2.315 -19.446,3.554 -29.577,3.713 -8.577,0 -15.903,-0.88 -21.983,-2.632 C 20.108,30.595 15.119,28.159 11.221,25.044 7.324,21.93 4.478,18.251 2.688,14.021 0.895,9.785 0,5.113 0,0"
							
								id="path3566"
								inkscape:connector-curvature="0"
							/>
						</g>
						<g
						
							id="g3568"
							transform="matrix(1.25,0,0,-1.25,1371.9743,233.68162)"
						>
							<path
								d="M 0,0 C 11.023,0 21.569,-1.161 31.636,-3.473 41.7,-5.794 50.328,-9.026 57.517,-13.181 v -30.914 c -10.066,3.835 -19.334,6.712 -27.799,8.627 -8.472,1.919 -17.098,2.876 -25.884,2.876 -9.268,0 -18.452,-1.519 -27.558,-4.554 -9.104,-3.037 -17.253,-8.028 -24.444,-14.977 -7.189,-6.95 -12.979,-16.139 -17.374,-27.559 -4.397,-11.423 -6.588,-25.605 -6.588,-42.537 0,-12.304 1.634,-23.643 4.911,-34.027 3.273,-10.391 8.15,-19.375 14.618,-26.962 6.473,-7.59 14.579,-13.503 24.325,-17.733 9.744,-4.238 21.005,-6.354 33.789,-6.354 9.265,0 18.61,0.999 28.038,2.996 9.427,1.997 18.611,4.831 27.561,8.509 v -30.916 c -2.719,-1.596 -6.274,-3.195 -10.663,-4.79 -4.398,-1.602 -9.229,-2.999 -14.501,-4.194 -5.272,-1.198 -10.866,-2.159 -16.774,-2.877 -5.913,-0.719 -11.826,-1.078 -17.735,-1.078 -15.338,0 -29.835,2.316 -43.495,6.952 -13.659,4.63 -25.606,11.741 -35.827,21.326 -10.225,9.586 -18.296,21.725 -24.204,36.425 -5.912,14.697 -8.868,32.114 -8.87,52.244 0,15.013 1.561,28.518 4.675,40.503 3.115,11.978 7.389,22.523 12.821,31.632 5.432,9.106 11.779,16.851 19.053,23.246 7.266,6.385 15.014,11.619 23.245,15.695 8.227,4.073 16.736,7.028 25.523,8.866 C -16.857,-0.921 -8.309,0 0,0"
								
								id="path3570"
								inkscape:connector-curvature="0"
							/>
						</g>
						<g
						
							id="g3572"
							transform="matrix(1.25,0,0,-1.25,1521.7527,525.74825)"
						>
							<path
								d="M 0,0 -0.001,227.662 H 37.145 V 0 Z m -0.96,280.624 v 41.46 l 37.145,-0.002 v -41.458 z"
								
								id="path3574"
								inkscape:connector-curvature="0"
							/>
						</g>
						<g
							id="g3576"
							transform="matrix(1.25,0,0,-1.25,1866.2424,383.7585)"
							
						>
							<path
								d="m 0,0 c 0,14.053 -1.719,26.558 -5.152,37.502 -3.435,10.943 -8.232,20.21 -14.375,27.803 -6.154,7.585 -13.463,13.336 -21.932,17.253 -8.469,3.911 -17.735,5.869 -27.796,5.869 -10.068,0 -19.334,-1.958 -27.802,-5.869 -8.467,-3.917 -15.776,-9.668 -21.926,-17.253 -6.15,-7.593 -10.946,-16.86 -14.379,-27.803 -3.436,-10.944 -5.151,-23.449 -5.151,-37.502 0,-13.899 1.715,-26.321 5.151,-37.265 3.433,-10.946 8.268,-20.172 14.501,-27.678 6.228,-7.515 13.576,-13.224 22.046,-17.136 8.464,-3.918 17.733,-5.872 27.799,-5.872 10.066,0 19.289,1.954 27.678,5.872 8.388,3.912 15.657,9.621 21.811,17.136 6.143,7.506 10.94,16.732 14.375,27.678 C -1.719,-26.321 0,-13.899 0,0 m 38.822,0 c 0,-17.894 -2.557,-34.192 -7.667,-48.887 -5.117,-14.702 -12.34,-27.281 -21.688,-37.747 -9.345,-10.464 -20.654,-18.571 -33.91,-24.323 -13.262,-5.75 -28.12,-8.626 -44.573,-8.626 -16.937,0 -32.076,2.876 -45.413,8.626 -13.342,5.752 -24.683,13.859 -34.028,24.323 -9.349,10.466 -16.502,23.045 -21.45,37.747 -4.956,14.695 -7.431,30.993 -7.431,48.887 0,18.052 2.555,34.426 7.671,49.127 5.111,14.697 12.341,27.318 21.686,37.864 9.348,10.545 20.691,18.693 34.029,24.444 13.339,5.752 28.239,8.627 44.697,8.627 16.773,0 31.872,-2.875 45.293,-8.627 C -10.545,105.684 0.798,97.536 10.063,86.991 19.33,76.445 26.438,63.824 31.395,49.127 36.344,34.426 38.822,18.052 38.822,0"
								
								id="path3578"
								inkscape:connector-curvature="0"
							/>
						</g>
					</g>
					<g
						transform="translate(-294.15386,910.1123)"
						id="g4165"
						
					>
						<g
							 
							id="g3580"
							transform="matrix(1.25,0,0,-1.25,1040.6589,642.36202)"
						>
							<path
								d="m 0,0 c 0,-6.23 1.326,-11.344 3.984,-15.336 2.653,-3.997 6.207,-7.227 10.659,-9.707 4.453,-2.475 9.608,-4.516 15.464,-6.112 5.858,-1.598 11.909,-3.033 18.16,-4.313 8.589,-1.916 16.71,-4.036 24.366,-6.351 7.655,-2.318 14.721,-5.793 21.207,-10.421 6.481,-4.639 11.712,-10.908 15.696,-18.814 3.982,-7.909 5.976,-18.176 5.976,-30.797 0,-11.499 -2.241,-21.685 -6.711,-30.552 -4.473,-8.867 -10.783,-16.3 -18.931,-22.288 -8.147,-5.993 -17.896,-10.546 -29.234,-13.66 -11.35,-3.115 -23.809,-4.671 -37.387,-4.671 -8.309,0 -15.859,0.443 -22.649,1.318 -6.791,0.878 -12.78,1.999 -17.974,3.353 -5.194,1.357 -9.626,2.757 -13.296,4.193 -3.679,1.439 -6.711,2.797 -9.108,4.074 v 31.156 c 9.409,-3.834 18.737,-6.871 27.999,-9.106 9.255,-2.241 19.45,-3.356 30.586,-3.356 8.785,0 16.703,0.794 23.76,2.396 7.061,1.596 13.138,3.957 18.238,7.07 5.101,3.113 9.021,7.028 11.765,11.742 2.745,4.71 4.12,10.184 4.12,16.416 0,6.389 -1.256,11.661 -3.767,15.817 -2.506,4.151 -5.882,7.587 -10.114,10.305 -4.237,2.716 -9.138,4.949 -14.704,6.707 -5.566,1.756 -11.411,3.36 -17.525,4.794 -7.997,1.757 -16.114,3.836 -24.35,6.232 -8.234,2.397 -15.725,5.753 -22.466,10.064 -6.745,4.317 -12.194,10.187 -16.351,17.615 -4.155,7.429 -6.231,16.972 -6.231,28.637 0,11.984 2.155,22.366 6.471,31.156 4.31,8.784 10.143,16.056 17.492,21.803 7.347,5.757 15.895,10.07 25.643,12.944 9.742,2.874 20.047,4.313 30.912,4.313 12.618,0 24.325,-1.197 35.108,-3.592 10.785,-2.397 20.569,-5.434 29.357,-9.108 V 22.286 c -9.353,3.675 -18.828,6.672 -28.411,8.987 -9.59,2.315 -19.447,3.554 -29.583,3.717 -8.569,0 -15.899,-0.88 -21.982,-2.637 C 20.109,30.59 15.122,28.16 11.225,25.042 7.328,21.927 4.481,18.25 2.691,14.019 0.898,9.784 0,5.112 0,0"
								 
								id="path3582"
								inkscape:connector-curvature="0"
							/>
						</g>
						<g
							 
							id="g3584"
							transform="matrix(1.25,0,0,-1.25,1459.1428,706.16572)"
						>
							<path
								d="m 0,0 c 0,13.259 -1.408,25.162 -4.218,35.707 -2.814,10.541 -7.029,19.53 -12.653,26.959 -5.625,7.43 -12.533,13.14 -20.725,17.137 -8.199,3.988 -17.679,5.987 -28.439,5.987 -7.715,0 -14.747,-1.04 -21.092,-3.114 -6.348,-2.08 -12.092,-4.712 -17.237,-7.906 -5.139,-3.201 -9.557,-6.631 -13.252,-10.306 -3.696,-3.68 -6.67,-6.95 -8.916,-9.825 V -64.464 c 7.872,-7.992 16.834,-14.303 26.873,-18.932 10.042,-4.637 20.847,-6.951 32.417,-6.951 7.069,0 14.539,1.317 22.413,3.953 7.871,2.636 15.143,7.348 21.812,14.139 6.665,6.788 12.169,16.017 16.51,27.68 C -2.171,-32.915 0,-18.055 0,0 m 38.822,0.477 c 0,-15.816 -1.562,-29.834 -4.694,-42.056 -3.13,-12.223 -7.262,-22.885 -12.395,-31.991 -5.137,-9.11 -11.154,-16.74 -18.053,-22.887 -6.898,-6.154 -14.04,-11.107 -21.42,-14.859 -7.385,-3.757 -14.886,-6.469 -22.508,-8.148 -7.626,-1.679 -14.802,-2.515 -21.537,-2.515 -13.965,0 -26.082,2.277 -36.35,6.829 -10.27,4.553 -19.497,11.298 -27.679,20.251 h -0.703 v -132.525 h -36.441 v 339.099 h 28.037 l 7.909,-25.885 h 0.72 c 2.073,3.194 4.751,6.312 8.028,9.346 3.272,3.035 7.667,6.269 13.179,9.708 5.511,3.432 12.139,6.429 19.891,8.986 7.75,2.554 16.176,3.834 25.282,3.834 12.78,0 25.124,-2.157 37.025,-6.472 11.902,-4.312 22.408,-11.184 31.516,-20.608 9.106,-9.428 16.413,-21.53 21.925,-36.306 5.512,-14.779 8.268,-32.712 8.268,-53.801"
								 
								id="path3586"
								inkscape:connector-curvature="0"
							/>
						</g>
						<g
							 
							id="g3588"
							transform="matrix(1.25,0,0,-1.25,1691.6673,598.92812)"
						>
							<path
								d="m 0,0 c -8.573,0 -16.538,-1.677 -23.9,-5.032 -7.362,-3.355 -13.79,-7.906 -19.289,-13.657 -5.499,-5.754 -9.945,-12.503 -13.343,-20.252 -3.401,-7.75 -5.501,-16.018 -6.31,-24.803 H 53.622 c 0,8.946 -1.17,17.292 -3.518,25.042 -2.343,7.747 -5.78,14.501 -10.312,20.251 -4.53,5.752 -10.111,10.265 -16.74,13.539 C 16.417,-1.639 8.732,0 0,0 m 19.597,-175.419 c 12.299,0 23.521,0.996 33.67,2.997 10.143,1.996 20.248,4.83 30.314,8.507 v -30.916 c -8.148,-3.994 -18.213,-7.146 -30.193,-9.463 -11.987,-2.313 -24.846,-3.476 -38.584,-3.476 -16.298,0 -31.597,2.079 -45.895,6.233 -14.3,4.149 -26.679,10.86 -37.132,20.13 -10.456,9.261 -18.644,21.364 -24.563,36.304 -5.917,14.936 -8.879,32.951 -8.879,54.04 0,20.766 2.869,38.781 8.606,54.04 5.736,15.256 13.384,27.997 22.95,38.225 9.563,10.22 20.556,17.889 32.986,23.002 12.434,5.114 25.422,7.67 38.97,7.67 12.746,0 24.662,-2.118 35.739,-6.349 11.075,-4.237 20.675,-10.908 28.806,-20.011 8.123,-9.108 14.539,-20.848 19.239,-35.228 4.702,-14.379 7.056,-31.634 7.056,-51.765 v -4.912 c 0,-1.357 -0.081,-4.431 -0.238,-9.226 H -64.759 c 0,-14.538 2.194,-26.879 6.588,-37.023 4.395,-10.148 10.386,-18.377 17.975,-24.682 7.587,-6.315 16.497,-10.907 26.72,-13.783 10.223,-2.878 21.246,-4.314 33.073,-4.314"
								 
								id="path3590"
								inkscape:connector-curvature="0"
							/>
						</g>
						<g
							 
							id="g3592"
							transform="matrix(1.25,0,0,-1.25,2008.5252,559.08562)"
						>
							<path
								d="m 0,0 c 11.026,0 21.567,-1.16 31.636,-3.475 10.065,-2.318 18.691,-5.551 25.882,-9.705 v -30.916 c -10.066,3.835 -19.335,6.71 -27.801,8.628 -8.472,1.917 -17.099,2.875 -25.881,2.875 -9.268,0 -18.454,-1.518 -27.562,-4.553 -9.102,-3.035 -17.252,-8.027 -24.441,-14.974 -7.191,-6.951 -12.983,-16.143 -17.376,-27.563 -4.395,-11.421 -6.588,-25.604 -6.588,-42.535 0,-12.303 1.635,-23.644 4.911,-34.031 3.273,-10.384 8.149,-19.374 14.62,-26.96 6.469,-7.587 14.579,-13.501 24.322,-17.734 9.744,-4.236 21.006,-6.35 33.791,-6.35 9.262,0 18.612,0.996 28.039,2.997 9.424,1.996 18.609,4.83 27.558,8.507 v -30.916 c -2.717,-1.597 -6.271,-3.196 -10.663,-4.792 -4.398,-1.595 -9.225,-2.993 -14.501,-4.191 -5.269,-1.2 -10.866,-2.158 -16.772,-2.877 -5.913,-0.718 -11.826,-1.079 -17.734,-1.079 -15.338,0 -29.836,2.317 -43.498,6.949 -13.658,4.631 -25.604,11.742 -35.824,21.329 -10.227,9.585 -18.298,21.724 -24.206,36.425 -5.911,14.697 -8.867,32.113 -8.867,52.245 0,15.016 1.559,28.515 4.674,40.498 3.113,11.982 7.386,22.528 12.822,31.635 5.429,9.106 11.776,16.852 19.052,23.243 7.265,6.388 15.014,11.622 23.245,15.697 8.225,4.075 16.735,7.026 25.521,8.868 C -16.854,-0.92 -8.308,0 0,0"
								 
								id="path3594"
								inkscape:connector-curvature="0"
							/>
						</g>
					</g>
				</g>
				<g
					id="g937"
					transform="matrix(0.08362169,0,0,0.08362169,-9.2954274,177.50632)"
				>
					<g
						transform="matrix(1.25,0,0,-1.25,167.05316,1118.6841)"
						id="g3596"
					>
						<path
							inkscape:connector-curvature="0"
							id="path3598"
							 
							d="m 0,0 -20.243,17.621 c 92.51,106.253 201.765,129.221 307.425,151.433 150.272,31.592 292.214,61.432 391.591,320.1 l 25.053,-9.622 C 599.212,207.229 443.391,174.471 292.702,142.791 186.711,120.505 86.6,99.461 0,0"
						/>
					</g>
					<g
						transform="matrix(1.25,0,0,-1.25,281.73886,1146.7371)"
						id="g3600"
					>
						<path
							inkscape:connector-curvature="0"
							id="path3602"
							 
							d="m 2.5,-0.35714286 c -34.138,-0.003 -68.821,8.22899996 -103.942,24.71999986 L -92.533,49.012 C 1.485,4.867 89.021,26.135 175.069,114.037 c 18.82,19.24 37.668,41.92 56.016,67.416 9.318,16.049 18.703,32.553 27.786,48.523 43.276,76.098 85.57838,155.34158 137.25438,210.10158 60.029,63.608 115.55386,89.53326 185.29386,75.73226 L 586.233,487.205 C 451.25,513.926 369.125,369.553 282.201,216.707 272.981,200.5 263.452,183.743 253.967,167.41 l -0.706,-1.091 C 234.004,139.514 214.148,115.606 194.251,95.27 132.141,31.818 67.117,0 0,0"
						
						/>
					</g>
					<g
						transform="matrix(1.25,0,0,-1.25,160.47056,1119.8426)"
						id="g3604"
					>
						<path
							inkscape:connector-curvature="0"
							id="path3606"
							 
							d="M 0,0 -25.679,7.798 C 8.468,120.243 48.643,180.314 100.76,196.851 164.528,217.075 231.143,165.213 295.57,115.053 372.255,55.349 444.695,-1.058 509.829,52.209 c 24.651,26.163 46.943,59.53 68.128,101.969 37.763,75.624 71.708,179.858 110.068,337.969 l 26.079,-6.325 C 674.73,323.505 641.194,220.734 601.97,142.188 579.424,97.024 555.471,61.356 528.749,33.153 l -1.179,-1.1 C 490.459,1.287 448.71,-4.214 399.944,15.235 359.234,31.473 318.486,63.197 279.082,93.873 217.418,141.882 159.176,187.228 108.875,171.269 66.532,157.836 29.353264,96.003623 -1.5657364,-5.8083771"
							
						/>
					</g>
				</g>
			</g>
		</svg>